<?xml version="1.0" encoding="UTF-8"?>
<svg xmlns="http://www.w3.org/2000/svg" xmlns:xlink="http://www.w3.org/1999/xlink" width="15px" height="15px" viewBox="0 0 15 15" version="1.1">
<g id="surface1">
<path style=" stroke:none;fill-rule:nonzero;fill:rgb(0%,46.666667%,71.764708%);fill-opacity:1;" d="M 13.644531 0 L 1.355469 0 C 0.609375 0 0 0.609375 0 1.355469 L 0 13.644531 C 0 14.390625 0.609375 15 1.355469 15 L 13.644531 15 C 14.390625 15 15 14.390625 15 13.644531 L 15 1.355469 C 15 0.609375 14.390625 0 13.644531 0 Z M 4.640625 12.953125 C 4.640625 13.171875 4.464844 13.347656 4.246094 13.347656 L 2.566406 13.347656 C 2.347656 13.347656 2.171875 13.171875 2.171875 12.953125 L 2.171875 5.90625 C 2.171875 5.6875 2.347656 5.511719 2.566406 5.511719 L 4.246094 5.511719 C 4.464844 5.511719 4.640625 5.6875 4.640625 5.90625 Z M 3.40625 4.847656 C 2.523438 4.847656 1.808594 4.132812 1.808594 3.25 C 1.808594 2.367188 2.523438 1.652344 3.40625 1.652344 C 4.289062 1.652344 5.003906 2.367188 5.003906 3.25 C 5.003906 4.132812 4.289062 4.847656 3.40625 4.847656 Z M 13.425781 12.984375 C 13.425781 13.183594 13.261719 13.347656 13.0625 13.347656 L 11.257812 13.347656 C 11.058594 13.347656 10.894531 13.183594 10.894531 12.984375 L 10.894531 9.679688 C 10.894531 9.1875 11.039062 7.519531 9.609375 7.519531 C 8.496094 7.519531 8.269531 8.660156 8.226562 9.171875 L 8.226562 12.984375 C 8.226562 13.183594 8.0625 13.347656 7.863281 13.347656 L 6.117188 13.347656 C 5.917969 13.347656 5.753906 13.183594 5.753906 12.984375 L 5.753906 5.875 C 5.753906 5.671875 5.917969 5.511719 6.117188 5.511719 L 7.863281 5.511719 C 8.0625 5.511719 8.226562 5.671875 8.226562 5.875 L 8.226562 6.488281 C 8.636719 5.871094 9.25 5.394531 10.554688 5.394531 C 13.441406 5.394531 13.425781 8.089844 13.425781 9.574219 Z M 13.425781 12.984375 "/>
</g>
</svg>
